<svg xmlns="http://www.w3.org/2000/svg" xmlns:xlink="http://www.w3.org/1999/xlink" width="216.872" height="219.87" viewBox="0 0 216.872 219.87"><defs><style>.a,.e,.f,.n,.p,.x,.z{fill:none;}.b{fill:#eebdbe;}.c{fill:#f9e9f2;}.d{fill:#f0daea;}.e{stroke:#f9e9f2;}.e,.f,.n,.p,.x,.z{stroke-miterlimit:10;}.e,.f{stroke-width:1.872px;}.f,.p{stroke:#3b41b0;}.g{fill:#6790f9;}.h,.q{fill:#fff;}.h{font-size:6px;font-family:Montserrat-ExtraBold, Montserrat;font-weight:800;letter-spacing:0.15em;}.i{fill:#3b41b0;}.j{fill:#496ef0;}.k{fill:#e4b355;}.l{fill:#efc985;}.m{fill:#5986e6;}.n{stroke:#496ef0;stroke-width:0.936px;}.o{fill:#eee8e1;}.p{stroke-width:1.706px;}.r{clip-path:url(#a);}.s{fill:#d79a9d;}.t{clip-path:url(#b);}.u{clip-path:url(#c);}.v{clip-path:url(#d);}.w{fill:#1c1c1c;}.x,.z{stroke:#fff;}.x{stroke-width:1.047px;}.y{clip-path:url(#e);}.z{stroke-width:10.471px;}</style><clipPath id="a"><rect class="a" width="126.481" height="192.471" rx="7"/></clipPath><clipPath id="b"><path class="b" d="M186.77,184.289l-11.5-10.979,24.781-25.965a7.951,7.951,0,0,1,11.241-.262h0a7.951,7.951,0,0,1,.262,11.241Z" transform="translate(-175.267 -144.884)"/></clipPath><clipPath id="c"><path class="b" d="M192.963,226.606l-11.5-10.979,24.781-25.965a7.951,7.951,0,0,1,11.241-.262h0a7.951,7.951,0,0,1,.262,11.241Z" transform="translate(-181.46 -187.202)"/></clipPath><clipPath id="d"><path class="b" d="M190.22,277.657l-11.5-10.979L203.5,240.713a7.951,7.951,0,0,1,11.241-.262h0A7.951,7.951,0,0,1,215,251.692Z" transform="translate(-178.717 -238.252)"/></clipPath><clipPath id="e"><rect class="c" width="61.457" height="118.749" rx="12.855"/></clipPath></defs><g transform="translate(-78.054 -113.218)"><g transform="translate(81.1 113.218)"><circle class="d" cx="104.147" cy="104.147" r="104.147"/><g transform="translate(81.835 38.383)"><g transform="translate(0 41.347)"><path class="e" d="M386,193.361v3.179h-1.8v22.387h23.5v44.2H353.6V196.54h-2.4v-3.179Z" transform="translate(-276.649 -193.361)"/><path class="e" d="M206.14,240.334h23.147V209.2h28.4v61.625h-49V243.513H206.14Z" transform="translate(-206.14 -201.06)"/></g><g transform="translate(35.068 0)"><g transform="translate(9.593)"><line class="f" y2="18.524" transform="translate(5.31 1.067)"/><line class="f" y2="18.524" transform="translate(37.806 1.067)"/><rect class="g" width="43.309" height="12.116"/><rect class="f" width="43.309" height="12.116"/><text class="h" transform="translate(6.013 7.329)"><tspan x="0" y="0">HOSTEL</tspan></text></g><g transform="translate(0 17.659)"><rect class="g" width="60.488" height="93.634" transform="translate(1.004)"/><rect class="i" width="62.496" height="3.162" transform="translate(0 2.75)"/><rect class="j" width="60.488" height="1.277" transform="translate(1.004 34.79)"/><rect class="j" width="60.488" height="1.277" transform="translate(1.004 63.005)"/></g><g transform="translate(8.734 29.453)"><rect class="k" width="8.786" height="11.482" transform="translate(1.495 0.465)"/><g transform="translate(1.216 0)"><path class="l" d="M294.443,182.319l-.7-1.825,5.3-9.372,1.512.4Z" transform="translate(-293.74 -170.657)"/><path class="l" d="M296.018,184.632l-.838-.564,7.838-13.85.838.564Z" transform="translate(-294.44 -170.217)"/></g><path class="i" d="M303.093,182.715h-9.709v-12.5h9.709Zm-8.786-1.1h7.863V171.32h-7.863Z" transform="translate(-292.351 -170.217)"/><rect class="i" width="11.775" height="3.049" transform="translate(0 11.947)"/><rect class="m" width="11.775" height="2.438" transform="translate(0 14.996)"/><rect class="i" width="8.786" height="1.104" transform="translate(1.495 5.781)"/><g transform="translate(16.626)"><rect class="k" width="8.786" height="11.482" transform="translate(1.494 0.465)"/><g transform="translate(1.216 0)"><path class="l" d="M326.8,182.319l-.7-1.825,5.3-9.372,1.512.4Z" transform="translate(-326.092 -170.657)"/><path class="l" d="M328.369,184.632l-.838-.564,7.838-13.85.838.564Z" transform="translate(-326.792 -170.217)"/></g><path class="i" d="M335.445,182.715h-9.709v-12.5h9.709Zm-8.786-1.1h7.863V171.32h-7.863Z" transform="translate(-324.703 -170.217)"/><rect class="i" width="11.775" height="3.049" transform="translate(0 11.947)"/><rect class="m" width="11.775" height="2.438" transform="translate(0 14.996)"/><rect class="i" width="8.786" height="1.104" transform="translate(1.494 5.781)"/></g><g transform="translate(33.252)"><rect class="k" width="8.786" height="11.482" transform="translate(1.494 0.465)"/><g transform="translate(1.216 0)"><path class="l" d="M359.147,182.319l-.7-1.825,5.3-9.372,1.512.4Z" transform="translate(-358.444 -170.657)"/><path class="l" d="M360.721,184.632l-.838-.564,7.838-13.85.838.564Z" transform="translate(-359.144 -170.217)"/></g><path class="i" d="M367.8,182.715h-9.709v-12.5H367.8Zm-8.786-1.1h7.863V171.32h-7.863Z" transform="translate(-357.055 -170.217)"/><rect class="i" width="11.775" height="3.049" transform="translate(0 11.947)"/><rect class="m" width="11.775" height="2.438" transform="translate(0 14.996)"/><rect class="i" width="8.786" height="1.104" transform="translate(1.494 5.781)"/></g><g transform="translate(0 29.025)"><rect class="k" width="8.786" height="11.482" transform="translate(1.495 0.465)"/><g transform="translate(1.216)"><path class="l" d="M294.443,238.8l-.7-1.825,5.3-9.372,1.512.4Z" transform="translate(-293.74 -227.134)"/><path class="l" d="M296.018,241.109l-.838-.564,7.838-13.85.838.564Z" transform="translate(-294.44 -226.695)"/></g><path class="i" d="M303.093,239.193h-9.709V226.7h9.709Zm-8.786-1.1h7.863V227.8h-7.863Z" transform="translate(-292.351 -226.695)"/><rect class="i" width="11.775" height="3.049" transform="translate(0 11.946)"/><rect class="m" width="11.775" height="2.438" transform="translate(0 14.996)"/><rect class="i" width="8.786" height="1.104" transform="translate(1.495 5.781)"/><g transform="translate(16.626)"><rect class="k" width="8.786" height="11.482" transform="translate(1.494 0.465)"/><g transform="translate(1.216)"><path class="l" d="M326.8,238.8l-.7-1.825,5.3-9.372,1.512.4Z" transform="translate(-326.092 -227.134)"/><path class="l" d="M328.369,241.109l-.838-.564,7.838-13.85.838.564Z" transform="translate(-326.792 -226.695)"/></g><path class="i" d="M335.445,239.193h-9.709V226.7h9.709Zm-8.786-1.1h7.863V227.8h-7.863Z" transform="translate(-324.703 -226.695)"/><rect class="i" width="11.775" height="3.049" transform="translate(0 11.946)"/><rect class="m" width="11.775" height="2.438" transform="translate(0 14.996)"/><rect class="i" width="8.786" height="1.104" transform="translate(1.494 5.781)"/></g><g transform="translate(33.252)"><rect class="k" width="8.786" height="11.482" transform="translate(1.494 0.465)"/><g transform="translate(1.216)"><path class="l" d="M359.147,238.8l-.7-1.825,5.3-9.372,1.512.4Z" transform="translate(-358.444 -227.134)"/><path class="l" d="M360.721,241.109l-.838-.564,7.838-13.85.838.564Z" transform="translate(-359.144 -226.695)"/></g><path class="i" d="M367.8,239.193h-9.709V226.7H367.8Zm-8.786-1.1h7.863V227.8h-7.863Z" transform="translate(-357.055 -226.695)"/><rect class="i" width="11.775" height="3.049" transform="translate(0 11.946)"/><rect class="m" width="11.775" height="2.438" transform="translate(0 14.996)"/><rect class="i" width="8.786" height="1.104" transform="translate(1.494 5.781)"/></g></g><g transform="translate(0 55.226)"><g transform="translate(0 2.823)"><rect class="k" width="8.786" height="11.482" transform="translate(1.495 0.465)"/><g transform="translate(1.216)"><path class="l" d="M294.443,295.275l-.7-1.825,5.3-9.372,1.512.4Z" transform="translate(-293.741 -283.612)"/><path class="l" d="M296.018,297.587l-.838-.564,7.838-13.85.838.564Z" transform="translate(-294.44 -283.173)"/></g><path class="i" d="M303.093,295.671h-9.709v-12.5h9.709Zm-8.786-1.1h7.863V284.276h-7.863Z" transform="translate(-292.351 -283.173)"/><rect class="i" width="11.775" height="3.049" transform="translate(0 11.946)"/><rect class="m" width="11.775" height="2.438" transform="translate(0 14.995)"/><rect class="i" width="8.786" height="1.103" transform="translate(1.495 5.781)"/></g><g transform="translate(18.582)"><g transform="translate(2.948 2.591)"><rect class="i" width="21.527" height="20.335"/><g transform="translate(2.175 2.147)"><rect class="k" width="6.385" height="8.021"/></g><g transform="translate(12.99 2.147)"><rect class="k" width="6.385" height="8.021"/></g></g><rect class="j" width="25.964" height="2.591" transform="translate(0.914)"/><line class="n" y2="20.335" transform="translate(13.676 2.591)"/><g transform="translate(0 22.674)"><rect class="o" width="24.374" height="1.857" transform="translate(1.525)"/><rect class="o" width="27.423" height="1.605" transform="translate(0 1.857)"/><rect class="i" width="24.374" height="0.613" transform="translate(1.525 1.244)"/></g></g></g></g></g></g><g transform="translate(81.634 120.773)"><g transform="translate(101.721)"><circle class="g" cx="8.413" cy="8.413" r="8.413"/><g transform="translate(4.744 5.713)"><line class="p" y2="23.273" transform="translate(3.271)"/><line class="p" x2="3.271" y2="3.669" transform="translate(0 0.436)"/><path class="p" d="M423.347,289.6c-.234.234-4.066,4.215-4.066,4.215" transform="translate(-416.01 -286.897)"/></g></g><line class="f" x1="129.557" transform="translate(0 28.902)"/></g><g transform="translate(78.477 17.121)"><path class="q" d="M406.089,150.047s1.031-3.4,4.123-3.492,3.048,1.3,5.232,1.259c3.265-.064,2.061-4.052,7.135-4.925s7.214,7.158,7.214,7.158Z" transform="translate(-299.976 -106.186)"/><path class="q" d="M199.607,81.94s1.674-4.9,6.7-5.026,4.642,1.444,8.5,1.3c3.493-.127,4.057-5.372,11.59-6.58,8.233-1.32,11.718,10.3,11.718,10.3Z" transform="translate(-199.607 -71.534)"/></g></g><g transform="translate(78.054 140.617)"><g class="r" transform="translate(0 0)"><g transform="translate(-15.768 6.879)"><g transform="translate(0 81.048)"><path class="b" d="M22.213,280.051S3.9,303.355,29.8,333.341c0,0,26.726,28.157,56.554-1.424Z" transform="translate(6.455 -280.051)"/><path class="b" d="M-.541,351.427l-30.471,29.339V427.64l29.893-.956L33.85,379.646Z" transform="translate(31.011 -317.389)"/><path class="s" d="M81.844,360.64h30.84L90.12,332.828Z" transform="translate(-28.026 -307.66)"/></g><g transform="translate(98.37 16.59)"><path class="b" d="M186.77,184.289l-11.5-10.979,24.781-25.965a7.951,7.951,0,0,1,11.241-.262h0a7.951,7.951,0,0,1,.262,11.241Z" transform="translate(-175.267 -144.884)"/><g class="t"><path class="s" d="M225.368,177.439l-9.461-1.137V137.489h11.5Z" transform="translate(-196.526 -141.016)"/></g><g transform="translate(2.953 20.18)"><path class="b" d="M192.963,226.606l-11.5-10.979,24.781-25.965a7.951,7.951,0,0,1,11.241-.262h0a7.951,7.951,0,0,1,.262,11.241Z" transform="translate(-181.46 -187.202)"/><g class="u"><path class="s" d="M226.435,182.75l-1.084,36.133-9.445-29.389Z" transform="translate(-199.48 -184.873)"/></g></g><g transform="translate(1.645 44.525)"><path class="b" d="M190.22,277.657l-11.5-10.979L203.5,240.713a7.951,7.951,0,0,1,11.241-.262h0A7.951,7.951,0,0,1,215,251.692Z" transform="translate(-178.717 -238.252)"/><g class="v"><path class="s" d="M227.625,224.035l-1.527,43.62-7.032-36.865Z" transform="translate(-199.825 -230.815)"/></g></g></g><g transform="translate(58.366)"><path class="w" d="M16.47,0H51.4A16.469,16.469,0,0,1,67.867,16.469V121.6A16.469,16.469,0,0,1,51.4,138.074H16.469A16.469,16.469,0,0,1,0,121.6V16.47A16.47,16.47,0,0,1,16.47,0Z"/><path class="x" d="M161.255,377.759a3.108,3.108,0,1,1-3.108-3.108A3.108,3.108,0,0,1,161.255,377.759Z" transform="translate(-124.681 -248.49)"/><g transform="translate(3.205 3.67)"><rect class="c" width="61.457" height="118.749" rx="12.855"/><g class="y"><line class="z" x1="91.268" y2="68.907" transform="translate(-15.955 23.62)"/><line class="z" x1="91.268" y2="68.907" transform="translate(-30.426 1.5)"/><path class="z" d="M84.184,102.543l54.9,80.723a6.514,6.514,0,0,1-1.13,8.6l-17.623,15.212c-8.035,6.937-9.146,14.492-2.513,22.78l28.443,40.038" transform="translate(-90.821 -109.815)"/></g><g transform="translate(18.725 44.374)"><circle class="q" cx="6.377" cy="6.377" r="6.377" transform="matrix(0.928, -0.373, 0.373, 0.928, 3.729, 7.559)"/><path class="g" d="M161.415,222.867a12.024,12.024,0,1,0-22.733,5.448h-.012l.1.176c.044.083.09.164.136.246L149.391,247.7l10.507-19c.036-.064.072-.127.106-.192l.048-.087h-.006A11.959,11.959,0,0,0,161.415,222.867Zm-12.024,3.875a4.8,4.8,0,1,1,4.8-4.8A4.8,4.8,0,0,1,149.391,226.742Z" transform="translate(-137.367 -210.843)"/></g></g></g><path class="b" d="M70.748,187.1c4.372,4.569,8.465,15.575-11.411,40.548,0,0,16,32.556-5.706,57.088l-17.3-44.38-7.229-9.4L66.488,187.2A2.869,2.869,0,0,1,70.748,187.1Z" transform="translate(-0.437 -149.908)"/></g></g></g></g></svg>