<svg xmlns="http://www.w3.org/2000/svg" xmlns:xlink="http://www.w3.org/1999/xlink" width="217.077" height="216.673" viewBox="0 0 217.077 216.673"><defs><style>.a{fill:none;}.b{fill:#e3f3f5;}.c{clip-path:url(#a);}.d{fill:#c0e2e8;}.e,.i{fill:#fffaef;}.f{fill:#8cc3cf;}.g{fill:#383a45;}.h{fill:#f05757;}.i,.j{opacity:0.2;}.k{fill:#ef9a9b;}.l{fill:#42394a;}.m{fill:#2291a5;}.n{fill:#e57373;}</style><clipPath id="a"><path class="a" d="M260.348,113.948c-16.744,2.918-5.541-26.258-22.814-40.63C223.809,61.9,197.259,54.264,160.71,90.3c-15.833,15.61-13.38-13.218-37.708-10.96s-82.282,102.2-10.013,97.586c32.642-2.084,19.572,22.724,42.069,28.325,43.387,10.8,45.892-21.194,63.674-23.395,14.941-1.85,7.983,62.705,59.916-.727C295.383,160.683,311.6,105.017,260.348,113.948Z" transform="translate(-77.924 -63.834)"/></clipPath></defs><g transform="translate(-79 -116.827)"><g transform="translate(4.076)"><g transform="translate(74.924 116.827)"><path class="b" d="M260.348,113.941c-16.744,2.918-5.541-26.258-22.814-40.631-13.726-11.42-40.276-19.054-76.825,16.978C144.877,105.9,147.33,77.07,123,79.328s-82.282,102.2-10.013,97.585c32.642-2.084,19.572,22.724,42.069,28.325,43.387,10.8,45.892-21.194,63.674-23.4,14.941-1.85,7.983,62.705,59.916-.727C295.383,160.676,311.6,105.01,260.348,113.941Z" transform="translate(-77.924 -63.827)"/><g transform="translate(0 0.004)"><g class="c"><path class="d" d="M78.486,204.379c-2.978,19.453,4.69,35.3,34.467,33.4,32.642-2.084,19.572,22.724,42.069,28.325,43.387,10.8,45.892-21.194,63.673-23.4,14.941-1.85,7.983,62.705,59.917-.727,7.133-8.712,14.168-23.823,15.928-37.6Z" transform="translate(-77.911 -124.712)"/><path class="e" d="M394.154,168.287s-37.223,1.236-38.827,0,6.417-.206,8.48-1.236,4.125-5.853,7.334-4.986,1.7,3.957,4.29,1.073,5.605-13,11.314-10.518,3.6,5.163,6.834,5.986,3.552-2.059,5.682,0,1.522,5.732,2.973,5.852,1.045-2.556,5.029-1.115,1.68,2.471,4.78,2.471,11.437,1.648,9.9,1.854S396.652,168.209,394.154,168.287Z" transform="translate(-180.276 -102.124)"/><path class="e" d="M198.979,178.165s31.626-.184,32-.418-1.933,0-5.86-1.017-2.088-5.2-6.4-5.055-2.688,4.328-6.593,4.069-2.305-3.264-5.375-2.776-.759,3.994-3.32,3.762S186.939,178.253,198.979,178.165Z" transform="translate(-120.838 -110.545)"/><path class="e" d="M305.2,125.482s31.626-.184,32-.419-1.933,0-5.86-1.016-2.088-5.2-6.4-5.055-2.688,4.328-6.593,4.069-2.305-3.265-5.375-2.776-.759,3.995-3.32,3.763S293.162,125.569,305.2,125.482Z" transform="translate(-160.06 -87.725)"/><path class="e" d="M59.909,171.068s31.627-.184,32-.418-1.933,0-5.86-1.017-2.087-5.2-6.4-5.055-2.688,4.328-6.593,4.069-2.3-3.265-5.375-2.776-.759,3.995-3.32,3.762S47.869,171.155,59.909,171.068Z" transform="translate(-69.487 -107.471)"/><path class="e" d="M291.8,96.756s-49.687,1.65-51.829,0,8.566-.275,11.32-1.65,5.507-7.813,9.79-6.656,2.275,5.281,5.727,1.432,7.482-17.357,15.1-14.04,4.811,6.892,9.123,7.991,4.741-2.749,7.585,0,2.032,7.651,3.967,7.812,1.4-3.414,6.714-1.489,2.243,3.3,6.381,3.3,15.266,2.2,13.22,2.474S295.132,96.652,291.8,96.756Z" transform="translate(-137.654 -68.811)"/><path class="e" d="M126.343,129.333s-28.529.947-29.758,0,4.919-.158,6.5-.947,3.162-4.486,5.621-3.822,1.306,3.032,3.287.822,4.3-9.966,8.672-8.061,2.763,3.957,5.238,4.589,2.722-1.579,4.355,0,1.166,4.393,2.278,4.485.8-1.96,3.855-.855,1.288,1.894,3.664,1.894,8.766,1.263,7.591,1.421S128.257,129.273,126.343,129.333Z" transform="translate(-84.754 -86.875)"/><path class="e" d="M274.005,208.147s5.178,0,4.019.316C276.63,208.842,272.848,208.316,274.005,208.147Z" transform="translate(-150.246 -126.345)"/><path class="e" d="M282.527,208.147s5.178,0,4.019.316C285.152,208.842,281.37,208.316,282.527,208.147Z" transform="translate(-153.392 -126.345)"/><path class="e" d="M289.51,206.956s5.178,0,4.019.316C292.135,207.651,288.353,207.125,289.51,206.956Z" transform="translate(-155.971 -125.829)"/><path class="e" d="M269.68,210.23s5.178,0,4.019.316C272.306,210.925,268.523,210.4,269.68,210.23Z" transform="translate(-148.649 -127.247)"/><path class="e" d="M262.083,209.436s5.178,0,4.019.316C264.708,210.13,260.926,209.6,262.083,209.436Z" transform="translate(-145.843 -126.903)"/><path class="e" d="M252.077,211.42s5.178,0,4.019.316C254.7,212.115,250.92,211.589,252.077,211.42Z" transform="translate(-142.149 -127.762)"/><path class="e" d="M245.679,208.56s5.178-.022,4.02.3C248.308,209.243,244.523,208.734,245.679,208.56Z" transform="translate(-139.786 -126.523)"/><path class="e" d="M233.352,208.648s5.178,0,4.019.316C235.978,209.342,232.2,208.817,233.352,208.648Z" transform="translate(-135.235 -126.562)"/><path class="e" d="M226.879,208.251s3.522,0,2.734.316C228.665,208.945,226.092,208.42,226.879,208.251Z" transform="translate(-132.87 -126.39)"/><path class="e" d="M240.392,206.956s3.522,0,2.734.316C242.177,207.651,239.6,207.125,240.392,206.956Z" transform="translate(-137.859 -125.829)"/><path class="e" d="M272.143,205.8s3.522,0,2.734.316C273.928,206.5,271.355,205.973,272.143,205.8Z" transform="translate(-149.583 -125.33)"/><path class="e" d="M276.893,212.514s3.522,0,2.734.316C278.678,213.209,276.106,212.683,276.893,212.514Z" transform="translate(-151.337 -128.236)"/><path class="e" d="M265.506,206.559s3.522,0,2.734.316C267.291,207.253,264.719,206.728,265.506,206.559Z" transform="translate(-147.133 -125.657)"/><path class="e" d="M257.11,205.8s3.522,0,2.734.316C258.9,206.5,256.323,205.973,257.11,205.8Z" transform="translate(-144.033 -125.33)"/><path class="e" d="M294.268,209.833s3.522,0,2.734.316C296.054,210.528,293.481,210,294.268,209.833Z" transform="translate(-157.753 -127.075)"/><path class="e" d="M281.129,206.559s3.522,0,2.734.316C282.914,207.253,280.341,206.728,281.129,206.559Z" transform="translate(-152.901 -125.657)"/><path class="e" d="M246.718,206.288s3.515-.2,2.75.162C248.548,206.882,245.944,206.5,246.718,206.288Z" transform="translate(-140.198 -125.516)"/><path class="e" d="M230.908,206.559s3.522,0,2.734.316C232.694,207.253,230.121,206.728,230.908,206.559Z" transform="translate(-134.358 -125.657)"/><path class="e" d="M240.189,211.42s5.178,0,4.019.316C242.814,212.115,239.032,211.589,240.189,211.42Z" transform="translate(-137.759 -127.762)"/><path class="e" d="M262.7,212.911s5.178,0,4.019.316C265.322,213.606,261.54,213.08,262.7,212.911Z" transform="translate(-146.07 -128.408)"/><path class="e" d="M283.573,211.817s5.178,0,4.019.316C286.2,212.512,282.416,211.986,283.573,211.817Z" transform="translate(-153.778 -127.934)"/><path class="e" d="M254.646,207.876s5.164-.336,4.034.054C257.321,208.4,253.506,208.12,254.646,207.876Z" transform="translate(-143.1 -126.169)"/><g transform="translate(181.757 61.882)"><path class="f" d="M403.748,258.72c-1.084-1.373-8.23-25.078-14.768-37.212l2.324-.69s10.623,17.831,14.251,32.637Z" transform="translate(-374.537 -193.715)"/><path class="f" d="M411.281,237.455c-.247-4.46-.327-34.082-9.993-49.625l2.438.2s11.131,14.184,14.08,45.815Z" transform="translate(-379.081 -179.426)"/><path class="f" d="M385.709,220.786c.068-.547-5.262.079-7.294,2.825s-.124,16.167-.124,16.167,2.9-6.248,2.587-6.927a5.819,5.819,0,0,1-.424-1.474s1.374.508,1.407-.071S385.532,222.221,385.709,220.786Z" transform="translate(-370.29 -193.623)"/><path class="f" d="M382.849,219.294c.829-.078-10.332-3.246-13.668-1.436s-3.235,12.888-3,12.531a34.4,34.4,0,0,1,3.372-5.787c1.832-2.3,3.216-4.32,3.216-4.32S382.022,219.372,382.849,219.294Z" transform="translate(-366.082 -192.192)"/><path class="f" d="M388.878,215.376c-1.125-.124-3.585-8.895-.883-9.442s11.793,1.239,10.9,1.394-8.424,1.554-8.623,2.3S390.238,215.527,388.878,215.376Z" transform="translate(-373.722 -187.223)"/><path class="f" d="M388.98,220.469s1.709-3.034,6.166-1.722,8.076,6.361,8.325,10.844l-5.164-4.625,1-1.011a8.817,8.817,0,0,1-1.774.57C396.566,224.665,392.319,220.138,388.98,220.469Z" transform="translate(-374.537 -192.676)"/><path class="f" d="M389.343,216.5s3.617-4.556,7.077-4.126,8.524,3.907,9.975,6.133c0,0-6.9-2.361-8.317-2.643C397.227,215.692,389.343,216.5,389.343,216.5Z" transform="translate(-374.671 -190.044)"/><path class="f" d="M394.224,186.717c.305-.477-4.859-1.818-7.943-.031s-7.307,14.774-7.307,14.774,5.443-4.684,5.453-5.42a5.745,5.745,0,0,1,.267-1.5s1.033.959,1.321.44S393.423,187.968,394.224,186.717Z" transform="translate(-370.842 -178.54)"/><path class="f" d="M393.309,183.411c.795.226-8.026-6.688-11.888-6.227s-8.7,10.65-8.323,10.408a39.058,39.058,0,0,1,5.666-4.093c2.7-1.445,4.869-2.8,4.869-2.8S392.516,183.186,393.309,183.411Z" transform="translate(-368.664 -174.805)"/><path class="f" d="M401.9,181.994c-.975-.518.672-9.441,3.392-8.972s10.259,5.373,9.373,5.2-8.412-1.6-8.928-.989S403.085,182.621,401.9,181.994Z" transform="translate(-379.205 -173.005)"/><path class="f" d="M401.754,185.57s4.029-4.267,7.438-3.577,8.129,4.536,9.366,6.864c0,0-6.66-2.874-8.04-3.261C409.685,185.362,401.754,185.57,401.754,185.57Z" transform="translate(-379.254 -176.865)"/><path class="f" d="M402.455,187.808s6.129-.991,8.271,1.489,3.064,8.146,2.372,10.65c0,0-3.106-6.024-3.9-7.112C408.723,192.18,402.455,187.808,402.455,187.808Z" transform="translate(-379.512 -179.332)"/></g><g transform="translate(-3.307 65.043)"><path class="f" d="M92.446,253.155c1.057-2.094,3.788-35.531,9.047-53.319l-3.315-.383s-9.089,26.376-9.675,47.067Z" transform="translate(-78.523 -187.621)"/><path class="f" d="M106.73,198.657c-.249-.717,7.076-1.121,10.592,2.085s4.835,21.639,4.835,21.639-5.7-7.7-5.467-8.68a7.789,7.789,0,0,0,.143-2.075s-1.695,1-1.906.233S107.382,200.539,106.73,198.657Z" transform="translate(-85.251 -187.06)"/><path class="f" d="M103.8,195.35c-1.133.088,12.91-6.76,17.9-5.112s8.059,16.518,7.638,16.095a49.769,49.769,0,0,0-6.191-6.97c-3.118-2.649-5.558-5.039-5.558-5.039S104.935,195.262,103.8,195.35Z" transform="translate(-84.149 -183.519)"/><path class="f" d="M98.471,191.444c1.471-.429,2.236-12.758-1.544-12.861s-15.448,4.411-14.21,4.412,11.739.118,12.223,1.074S96.691,191.963,98.471,191.444Z" transform="translate(-76.353 -178.581)"/><path class="f" d="M99.175,198.66s-3.167-3.667-8.761-.87-8.988,10.408-8.026,16.475l5.585-7.4-1.629-1.122a12.331,12.331,0,0,0,2.541.35C90.219,206.054,94.6,199,99.175,198.66Z" transform="translate(-76.205 -186.446)"/><path class="f" d="M94.955,193.913s-6.162-5.263-10.677-3.879-10.3,7.224-11.6,10.547c0,0,8.573-4.775,10.383-5.481C84.157,194.673,94.955,193.913,94.955,193.913Z" transform="translate(-72.681 -183.441)"/></g></g></g></g><ellipse class="d" cx="15.599" cy="15.599" rx="15.599" ry="15.599" transform="translate(203.105 152.537)"/></g><g transform="translate(4.14)"><path class="d" d="M61.964,437.74c18.931-2.565,170.844-1.277,171.1,1.754S33.345,441.618,61.964,437.74Z" transform="translate(37.699 -107.802)"/><g transform="translate(100.816 252.017)"><path class="g" d="M78.7,328.111a.85.85,0,0,1-.85-.85v-20.41c0-1.858-2.545-3.427-5.556-3.427s-5.556,1.569-5.556,3.427v20.41a.85.85,0,0,1-1.7,0v-20.41c0-2.828,3.255-5.128,7.257-5.128s7.257,2.3,7.257,5.128v20.41A.85.85,0,0,1,78.7,328.111Z" transform="translate(-54.892 -301.496)"/><rect class="g" width="9.807" height="3.708" rx="1.854" transform="translate(12.498 0)"/><g transform="translate(2.216 70.885)"><ellipse class="g" cx="3.793" cy="3.793" rx="3.793" ry="3.793"/><ellipse class="g" cx="3.793" cy="3.793" rx="3.793" ry="3.793" transform="translate(22.785)"/></g><rect class="h" width="34.803" height="46.718" rx="12" transform="translate(0 24.941)"/><rect class="i" width="2.294" height="35.344" rx="1.147" transform="translate(16.254 30.628)"/><g class="j" transform="translate(9.512 30.628)"><rect class="e" width="2.294" height="35.344" rx="1.147"/><rect class="e" width="2.294" height="35.344" rx="1.147" transform="translate(13.486)"/></g></g><g transform="translate(114.741 164.113)"><path class="k" d="M82.344,294.446a24.7,24.7,0,0,0,4.881-5.1s1.973,1.812,2.046,3.061-3.726,5.374-4.895,5.374C83.831,297.781,82.344,294.446,82.344,294.446Z" transform="translate(-76.313 -208.232)"/><path class="k" d="M77.736,298.329s-5.661-.6-6.01,5.119c-.328,5.365,3.331-1.745,8.042-1.784C81.373,301.651,81.558,299.393,77.736,298.329Z" transform="translate(-71.705 -212.115)"/><path class="g" d="M80.947,301.063a.141.141,0,0,1-.1-.04,25.23,25.23,0,0,1-2.064-2.183.142.142,0,0,1,.238-.154,25.943,25.943,0,0,0,2.022,2.134.142.142,0,0,1-.1.244Z" transform="translate(-74.762 -212.249)"/><path class="g" d="M72.872,306.149a.142.142,0,0,1-.117-.221c.108-.16,2.673-3.921,4.9-4.594a.141.141,0,0,1,.082.271c-2.134.644-4.724,4.443-4.75,4.482A.14.14,0,0,1,72.872,306.149Z" transform="translate(-72.149 -213.422)"/><path class="g" d="M72.872,304.9h-.006a.141.141,0,0,1-.135-.139,6.331,6.331,0,0,1,4.19-4.742.141.141,0,1,1,.1.265,6.065,6.065,0,0,0-4.006,4.485A.144.144,0,0,1,72.872,304.9Z" transform="translate(-72.149 -212.852)"/><path class="g" d="M72.249,303.927l-.028,0a.142.142,0,0,1-.111-.168c.008-.038.826-3.836,4.082-4.661a.14.14,0,0,1,.172.1.142.142,0,0,1-.1.172c-3.085.782-3.867,4.407-3.874,4.444A.142.142,0,0,1,72.249,303.927Z" transform="translate(-71.879 -212.453)"/><g transform="translate(7.112 0)"><path class="g" d="M162.476,151.131a13.926,13.926,0,0,1,4.657,7.175c.968,4.353-1.764,6.438-2.207,6.545S159.431,151.857,162.476,151.131Z" transform="translate(-117.715 -148.363)"/><g transform="translate(62.978 31.622)"><rect class="e" width="6.133" height="11.824" rx="1.135"/><ellipse class="l" cx="0.55" cy="0.55" rx="0.55" ry="0.55" transform="translate(0.649 0.597)"/></g><path class="g" d="M169.52,424.436c.365-.081-.353,6.829.727,7.271s11.719.264,11.905-.129-5.239-1.878-6.327-3.178c-.79-.944-.933-3.743-.933-3.743S169.078,424.534,169.52,424.436Z" transform="translate(-121.176 -266.747)"/><path class="g" d="M119.239,412.111c.329.179-4.793,6.733-4.269,7.776s8.7,6.083,9.1,5.909-2.714-4.859-2.679-6.553c.025-1.231,1.757-3.435,1.757-3.435S118.841,411.895,119.239,412.111Z" transform="translate(-97.541 -261.405)"/><path class="m" d="M153.029,300.549s7.5,27.251,6.978,33.206-4.746,38.892-4.746,38.892H143.827s4.235-38.054,4.029-41.031-5.41-19.505-6.381-19.429l-.97.076s-1.088,22.7-2.1,28.021-14.274,30.347-14.274,30.347-9.063-3.374-9.131-5.136,10.929-23.175,11.816-27.4-2.683-35.042-2.683-35.042Z" transform="translate(-97.57 -213.085)"/><path class="k" d="M189.231,215.989s-2.153-6.829-8.381-5.775c-4.324.731,4.559,4.425,5.57,7.025.629,1.617,5.974,20.373-1.731,18.948s-12.844-24.139-14.838-25.973-8.594,4.009-8.594,4.009,7.766,21.085,19.593,24.958S202.1,231.47,189.231,215.989Z" transform="translate(-117.607 -173.801)"/><path class="l" d="M190.44,216.986s4.248-2.865,5.7-1.584,11.09,18.815-1.965,24.7c-11.968,5.4-21.7-12.491-21.729-14.855s1.907-18.4,3.193-17.072c1.479,1.532,8.058,25.375,14.529,23.763S189.259,218.225,190.44,216.986Z" transform="translate(-122.452 -173.04)"/><path class="g" d="M151.612,150.321c-.393-.538-2.544-4.42-6.354-4.048s-3.185,3.759-6.069,4.428-6.083,5.283-3.823,8.673c1.606,2.409-1.937,2.146-.87,6.046.513,1.872,4.521,4.181,5.918,4.217S155.1,155.086,151.612,150.321Z" transform="translate(-105.928 -146.248)"/><path class="l" d="M126.553,260.13s-.218-51.676,3.247-56.091,24.672-4.434,26.378,1.985c3.984,14.987,4.419,50.77,3.919,54.106C160.1,260.13,139.836,261.217,126.553,260.13Z" transform="translate(-102.574 -169.936)"/><path class="k" d="M143.811,177.548s-1.477-4.449-3.4-4.722-1.576,4.65,1.034,6.225S143.811,177.548,143.811,177.548Z" transform="translate(-108.05 -157.756)"/><path class="k" d="M142.845,158.314s-3.776,17.611,8.293,17.609c10.488,0,7.649-19.669,1.381-21.18S143.032,156.35,142.845,158.314Z" transform="translate(-109.39 -149.755)"/><path class="k" d="M153.084,173.972s-.509,13.216,0,14.259c.706,1.445-1.742,2.991-4.047,2.911-3.369-.117-3.369-2.919-3.369-2.919v-17.3S151.236,171.424,153.084,173.972Z" transform="translate(-110.854 -156.936)"/><path class="g" d="M144.169,150.844c.96-.584,6.444-2.454,9.466,1.879,1.588,2.277-1.01,9.056-6.745,4.466-5.116-4.094-3.6,9.579-4.518,9.079s-1.8-3.182-2.545-2.007c-.768,1.207-.253,4.169,2.545,5.5,0,0,.108,1.691-.325,1.471C138.7,169.531,134.158,156.929,144.169,150.844Z" transform="translate(-107.559 -147.847)"/><path class="g" d="M161.082,177.156a.369.369,0,0,1-.179-.048c-.436-.241-.62-1.432-.652-1.668a.142.142,0,0,1,.121-.16.146.146,0,0,1,.159.121c.073.529.278,1.332.508,1.458a.083.083,0,0,0,.083,0c.255-.217-.01-2.825-.4-5.115a.142.142,0,0,1,.116-.164.143.143,0,0,1,.164.116c.265,1.542.821,5.158.242,5.421A.381.381,0,0,1,161.082,177.156Z" transform="translate(-117.171 -157.221)"/><ellipse class="g" cx="0.542" cy="0.542" rx="0.542" ry="0.542" transform="translate(38.789 15.404)"/><ellipse class="g" cx="0.542" cy="0.542" rx="0.542" ry="0.542" transform="translate(45.685 15.06)"/><path class="g" d="M159.568,183.688a1.325,1.325,0,0,1-1.266-.876.142.142,0,0,1,.27-.084,1.035,1.035,0,0,0,1.106.672c.833-.062.833-.565.833-.587a.142.142,0,0,1,.137-.145.15.15,0,0,1,.146.135c0,.008.019.8-1.1.879Q159.632,183.688,159.568,183.688Z" transform="translate(-116.325 -162.007)"/><path class="g" d="M151.513,170.992a1.493,1.493,0,0,0-1.032.811c-.211.452.841-.241,1.629-.186s1.439.325,1.222,0S152.625,170.952,151.513,170.992Z" transform="translate(-112.928 -156.964)"/><path class="g" d="M163.447,169.407a1.493,1.493,0,0,0-1.032.811c-.211.452.842-.241,1.629-.187s1.439.325,1.222,0S164.559,169.367,163.447,169.407Z" transform="translate(-118.097 -156.278)"/><path class="g" d="M153.671,191.764a2,2,0,0,0,0-1.2c-.137-.048-4.426-.336-5.648-2.065S147.642,192.117,153.671,191.764Z" transform="translate(-111.668 -164.399)"/><path class="g" d="M143.284,180.426a.142.142,0,0,1-.063-.269c.077-.038.088-.18.088-.261a3.228,3.228,0,0,0-1.062-2.08c-.339-.17-.453-.128-.472-.117a.154.154,0,0,1-.167.126.144.144,0,0,1-.129-.155.31.31,0,0,1,.163-.222c.166-.088.4-.05.732.114a3.418,3.418,0,0,1,1.219,2.334.514.514,0,0,1-.247.515A.136.136,0,0,1,143.284,180.426Z" transform="translate(-109.04 -159.743)"/><path class="g" d="M143.654,180.136a.14.14,0,0,1-.091-.033,1.777,1.777,0,0,1-.474-1.508.142.142,0,0,1,.283.019,1.515,1.515,0,0,0,.374,1.273.142.142,0,0,1-.091.25Z" transform="translate(-109.735 -160.202)"/><ellipse class="n" cx="1.808" cy="1.808" rx="1.808" ry="1.808" transform="translate(36.609 16.925)"/><ellipse class="n" cx="1.808" cy="1.808" rx="1.808" ry="1.808" transform="translate(44.959 16.594)"/><path class="g" d="M147.693,161.444s-2.5.287-2.128,5.41c.159,2.176.811,9.506,2.338,9.416s3.009-3.018,5.694-3.237,4.443.846,4.565,1.837c.167,1.361.013,7.188-4.565,7.477-6.611.417-8.372-5.095-8.808-11.447S144.217,161.167,147.693,161.444Z" transform="translate(-110.377 -152.823)"/><path class="g" d="M133.19,316.686a.141.141,0,0,1-.058-.27c3.806-1.721,3.834-11.064,3.834-11.159a.142.142,0,0,1,.142-.142h0a.142.142,0,0,1,.142.142,30.471,30.471,0,0,1-.485,5c-.656,3.5-1.839,5.656-3.515,6.414A.141.141,0,0,1,133.19,316.686Z" transform="translate(-105.388 -215.062)"/><path class="g" d="M159.217,314.98a.142.142,0,0,1-.141-.128l-.835-9.051a.143.143,0,0,1,.128-.155.141.141,0,0,1,.154.128l.835,9.051a.141.141,0,0,1-.128.154Z" transform="translate(-116.301 -215.292)"/><path class="g" d="M159.559,312.945a.156.156,0,0,1-.142-.145c-.01-.107.065-.195.214-.372.562-.668,2.056-2.44,1.414-7.152a.141.141,0,0,1,.121-.16.145.145,0,0,1,.16.121c.659,4.837-.949,6.746-1.478,7.373a1.517,1.517,0,0,0-.151.2.127.127,0,0,1-.127.138Z" transform="translate(-116.81 -215.063)"/><path class="g" d="M181.86,313.172c-1.636,0-3.14-1.224-4.364-3.561a18.658,18.658,0,0,1-1.439-3.79.142.142,0,0,1,.1-.171.14.14,0,0,1,.171.105c.018.075,1.834,7.486,5.807,7.12a.145.145,0,0,1,.154.129.142.142,0,0,1-.129.154C182.063,313.167,181.961,313.172,181.86,313.172Z" transform="translate(-124.016 -215.292)"/><path class="g" d="M146.313,320.666a.142.142,0,0,1-.042-.277,31.511,31.511,0,0,1,5.564-.321c-2.02-.591-5.4-2.045-5.578-2.12a.142.142,0,0,1,.112-.26c.052.022,5.214,2.241,6.6,2.34.223.016.335.024.33.168s-.005.15-1.1.154a35.629,35.629,0,0,0-5.84.308A.138.138,0,0,1,146.313,320.666Z" transform="translate(-111.073 -220.504)"/><path class="g" d="M167.526,320.311a.143.143,0,0,1-.048-.009,19.906,19.906,0,0,0-2.991-.487c-1.78-.213-1.924-.246-1.923-.444,0-.167.2-.2.517-.239,1.72-.2,3.593-3.6,3.612-3.636a.142.142,0,1,1,.249.136c-.077.14-1.834,3.331-3.633,3.747.337.05.791.1,1.212.155a19.3,19.3,0,0,1,3.052.5.142.142,0,0,1-.048.275Z" transform="translate(-118.174 -219.527)"/><path class="l" d="M117.514,201.845c-5.272.395-11.233.475-15.872,15.983-1.608,5.375-2.313,17.96-8.67,26.053-6.138,7.813-8.72,10.63-8.72,10.63s.948,4.156,4.255,5.251,8.956-5.447,11.565-9.018c9.607-13.147,9.84-25.561,11.981-28.2a13.026,13.026,0,0,0,2.579-5.705Z" transform="translate(-84.252 -170.33)"/><path class="g" d="M204.783,217.964a.142.142,0,0,1-.092-.249l1.767-1.523a.142.142,0,1,1,.185.215l-1.767,1.523A.14.14,0,0,1,204.783,217.964Z" transform="translate(-136.4 -176.53)"/><path class="g" d="M201.306,215.71a.141.141,0,0,1-.117-.062c-1.494-2.177-5.395-3.584-5.434-3.6a.142.142,0,0,1,.1-.267c.164.058,4.027,1.453,5.572,3.7a.142.142,0,0,1-.117.222Z" transform="translate(-132.51 -174.631)"/><path class="g" d="M202.309,214.768a.141.141,0,0,1-.128-.082c-.95-2.027-4.937-3.7-5.281-3.746a.127.127,0,0,1-.149-.118.152.152,0,0,1,.132-.163h.011c.358,0,4.521,1.725,5.544,3.907a.143.143,0,0,1-.069.189A.141.141,0,0,1,202.309,214.768Z" transform="translate(-132.981 -174.148)"/><path class="g" d="M203.938,213.875a.143.143,0,0,1-.123-.07,7.927,7.927,0,0,0-4.4-3.292.142.142,0,1,1,.072-.274,8.066,8.066,0,0,1,4.576,3.422.142.142,0,0,1-.05.194A.146.146,0,0,1,203.938,213.875Z" transform="translate(-134.089 -173.965)"/><path class="e" d="M159.568,183.688a1.325,1.325,0,0,1-1.266-.876.142.142,0,0,1,.27-.084,1.035,1.035,0,0,0,1.106.672c.833-.062.833-.565.833-.587a.142.142,0,0,1,.137-.145.15.15,0,0,1,.146.135c0,.008.019.8-1.1.879Q159.632,183.688,159.568,183.688Z" transform="translate(-116.325 -162.007)"/></g></g></g></g></svg>