<svg xmlns="http://www.w3.org/2000/svg" xmlns:xlink="http://www.w3.org/1999/xlink" width="202.039" height="202.9" viewBox="0 0 202.039 202.9">
  <defs>
    <clipPath id="clip-path">
      <path id="Retângulo_128" data-name="Retângulo 128" d="M0,0H202.039a0,0,0,0,1,0,0V181.134a0,0,0,0,1,0,0H70a70,70,0,0,1-70-70V0A0,0,0,0,1,0,0Z" fill="#5383d2"/>
    </clipPath>
    <clipPath id="clip-path-2">
      <path id="Caminho_466" data-name="Caminho 466" d="M127.493,272.28c.095,3.324-.661,18.225-.381,19.272s2.471,1.613,3.041,2.563,4.08.569,5.79.569,10.818-.095,10.914-1.139-.663-41.389-.377-41.579.948.569.948,0-1.329-9.495-1.043-10.632.095-4.842,1.422-5.887,5.6-1.8,6.647-2.468,5.885.952,7.119,0,4.274-8.258,5.506-8.353,5.79-.284,7.216-.758,2.184-1.142,1.708-1.9-3.227-2.089-5.127-1.807-2.658,1.045-3.606,1.142-8.071.379-10.063-.284-7.216-1.995-9.587-2.468-5.6-1.043-5.792-1.424-.55-3.067-1.708-4.556.187-5.129-1.708-5.887-5.508-1.519-7.026,1.613.569,5.506.855,6.167.853,3.326.474,3.612-5.032,1.137-6.645,1.99-5.03,2.944-7.024,2.944-6.74.571-8.071.664-5.217-.093-5.6.192-5.127-.855-6.835-.379S93.6,225,94.173,225.86s4.844,2.184,7.688,1.995,3.894-1.236,4.558-.286,2.944,6.266,4.271,7.408,9.208-.476,10.822-.192,4.747.853,4.747,1.992-.474,27.341.192,28.859,1.137,1.137,1.137,1.805S127.493,272.28,127.493,272.28Z" transform="translate(-94.106 -206.013)" fill="#ecaf63"/>
    </clipPath>
  </defs>
  <g id="Grupo_1803" data-name="Grupo 1803" transform="translate(-86.43 -130.344)">
    <g id="Grupo_164" data-name="Grupo 164" transform="translate(36 -33.333)">
      <g id="Grupo_162" data-name="Grupo 162" transform="translate(50.43 185.443)">
        <g id="Grupo_161" data-name="Grupo 161" clip-path="url(#clip-path)">
          <g id="Grupo_160" data-name="Grupo 160" transform="translate(-40.312 28.711)">
            <path id="Caminho_460" data-name="Caminho 460" d="M32.122,228.922c11.367-1.868,36.168-7.408,40.441-9.969A94.472,94.472,0,0,1,83.1,213.827c1.142-3.989,2.85-21.361,11.393-20.5s8.829,19.649,12.816,20.217,16.233,4.556,20.22,9.114,18.8,12.814,26.484,13.671,15.95-.284,17.659-3.416,10.251-16.519,18.511-13.956,9.111,2.277,12.246,1.422,9.114,3.134,13.1,5.127,11.108,0,13.671-1.424,10.156-4.84,15.47-1.992,18.606,9.4,15.666,11.106-16.9,1.689-17.18,3.408,16.8,7.416,21.928,6.561S285.959,238.6,291,241.45s9.682,3.134,11.393,5.982-3.7,107.082-3.7,107.082H29.561s-9.116-75.183,0-75.47,36.168-7.69,41.008-10.251,30.757-11.677,36.739-13.671,19.649-5.979,14.809-7.974-23.354-1.995-33.607-4.274-12.53-4.556-15.662-6.266-14.24,1.71-22.785,1.139-20.788-1.139-23.352-2.843S28.758,229.472,32.122,228.922Z" transform="translate(-25.509 -193.292)" fill="rgba(171,135,135,0.52)"/>
            <path id="Caminho_461" data-name="Caminho 461" d="M68.808,298.027c.95-6.839,8.543-30.567,14.428-34.175s19.558-13.1,19.937-15.19-.379-4.937,3.416-4.366,10.4,2.845,11.275,1.9,4.486-4.937,7.9-4.558,8.545,3.61,10.824,3.039,8.734.379,11.58,2.089,6.456,7.593,8.355,8.732,17.846,9.493,22.214,10.061,20.125,4.747,22.591,6.458,4.179,7.785,6.076,9.684,5.7,6.072,7.4,9.3,5.508,10.822,5.127,12.342S68.808,298.027,68.808,298.027Z" transform="translate(22.388 -139.843)" fill="#a2bc11"/>
            <path id="Caminho_462" data-name="Caminho 462" d="M111.974,245.929c-2.58.436-3.722,3.987-4.236,6.837s.135,16.9,0,18.606,1.952,3.987,4.236,5.124,7.21.76,9.489,1.142,15.529-.383,16.974-2.66-.455-21.075-.836-22.212-2.656-5.127-6.074-5.887S114.392,245.52,111.974,245.929Z" transform="translate(65.231 -135.212)" fill="#060602"/>
            <g id="Grupo_159" data-name="Grupo 159" transform="translate(144.48 26.793)">
              <path id="Caminho_463" data-name="Caminho 463" d="M127.493,272.28c.095,3.324-.661,18.225-.381,19.272s2.471,1.613,3.041,2.563,4.08.569,5.79.569,10.818-.095,10.914-1.139-.663-41.389-.377-41.579.948.569.948,0-1.329-9.495-1.043-10.632.095-4.842,1.422-5.887,5.6-1.8,6.647-2.468,5.885.952,7.119,0,4.274-8.258,5.506-8.353,5.79-.284,7.216-.758,2.184-1.142,1.708-1.9-3.227-2.089-5.127-1.807-2.658,1.045-3.606,1.142-8.071.379-10.063-.284-7.216-1.995-9.587-2.468-5.6-1.043-5.792-1.424-.55-3.067-1.708-4.556.187-5.129-1.708-5.887-5.508-1.519-7.026,1.613.569,5.506.855,6.167.853,3.326.474,3.612-5.032,1.137-6.645,1.99-5.03,2.944-7.024,2.944-6.74.571-8.071.664-5.217-.093-5.6.192-5.127-.855-6.835-.379S93.6,225,94.173,225.86s4.844,2.184,7.688,1.995,3.894-1.236,4.558-.286,2.944,6.266,4.271,7.408,9.208-.476,10.822-.192,4.747.853,4.747,1.992-.474,27.341.192,28.859,1.137,1.137,1.137,1.805S127.493,272.28,127.493,272.28Z" transform="translate(-94.106 -206.013)" fill="#ecaf63"/>
              <g id="Grupo_158" data-name="Grupo 158" clip-path="url(#clip-path-2)">
                <path id="Caminho_464" data-name="Caminho 464" d="M109.1,233c2.957,0,10.021-5.445,13.334-11.67s3.629-11.2,4.872-11.049,8.56-.465,8.4,2.8-1.87,9.495-4.358,19.609-8.223,25.831-11.736,30.344-5.535,7.469-9.427,6.536S109.1,233,109.1,233Z" transform="translate(-78.597 -201.297)" fill="#c9863d"/>
                <path id="Caminho_465" data-name="Caminho 465" d="M112.563,216.967c1.816,1.5,4.242,4.292,7.123,3.734s5.038-5.95,5.183-6.942-.946-9.552-9.352-9.086C106.963,205.153,112.563,216.967,112.563,216.967Z" transform="translate(-75.68 -207.517)" fill="#e2a256"/>
              </g>
            </g>
          </g>
        </g>
      </g>
    </g>
    <path id="Caminho_467" data-name="Caminho 467" d="M305.2,125.482s31.626-.184,32-.419-1.933,0-5.86-1.016-2.088-5.2-6.4-5.055-2.688,4.328-6.593,4.069-2.305-3.265-5.375-2.776-.759,3.995-3.32,3.763S293.162,125.569,305.2,125.482Z" transform="translate(-70.06 36.106)" fill="#fff2d6"/>
    <path id="Caminho_468" data-name="Caminho 468" d="M291.8,96.756s-49.687,1.65-51.829,0,8.566-.275,11.32-1.65,5.507-7.813,9.79-6.656,2.275,5.281,5.727,1.432,7.482-17.357,15.1-14.04,4.811,6.892,9.123,7.991,4.741-2.749,7.585,0,2.032,7.651,3.967,7.812,1.4-3.414,6.714-1.489,2.243,3.3,6.381,3.3,15.266,2.2,13.22,2.474S295.132,96.652,291.8,96.756Z" transform="translate(-47.654 55.02)" fill="#fff2d6"/>
    <path id="Caminho_469" data-name="Caminho 469" d="M126.343,129.333s-28.529.947-29.758,0,4.919-.158,6.5-.947,3.162-4.486,5.621-3.822,1.306,3.032,3.287.822,4.3-9.966,8.672-8.061,2.763,3.957,5.238,4.589,2.722-1.579,4.355,0,1.166,4.393,2.278,4.485.8-1.96,3.855-.855,1.288,1.894,3.664,1.894,8.766,1.263,7.591,1.421S128.257,129.273,126.343,129.333Z" transform="translate(5.245 36.956)" fill="#fff2d6"/>
    <path id="Caminho_470" data-name="Caminho 470" d="M291.8,96.756s-49.687,1.65-51.829,0,8.566-.275,11.32-1.65,5.507-7.813,9.79-6.656,2.275,5.281,5.727,1.432,7.482-17.357,15.1-14.04,4.811,6.892,9.123,7.991,4.741-2.749,7.585,0,2.032,7.651,3.967,7.812,1.4-3.414,6.714-1.489,2.243,3.3,6.381,3.3,15.266,2.2,13.22,2.474S295.132,96.652,291.8,96.756Z" transform="translate(-115.654 83.02)" fill="#fff2d6"/>
  </g>
</svg>
